{
    "asset" : {
        "generator" : "Khronos glTF Blender I/O v1.5.17",
        "version" : "2.0"
    },
    "scene" : 0,
    "scenes" : [
        {
            "name" : "Scene",
            "nodes" : [
                0,
                1
            ]
        }
    ],
    "nodes" : [
        {
            "mesh" : 0,
            "name" : "flower",
            "rotation" : [
                0.0011891692411154509,
                -0.9999648332595825,
                9.887383384921122e-06,
                0.008302239701151848
            ],
            "scale" : [
                0.009905366227030754,
                0.22728189826011658,
                0.15826699137687683
            ],
            "translation" : [
                4.195529937744141,
                0.5408217310905457,
                -16.779438018798828
            ]
        },
        {
            "mesh" : 1,
            "name" : "plane7",
            "rotation" : [
                0.0038089125882834196,
                0.003808912355452776,
                0.707096517086029,
                0.7070965766906738
            ],
            "scale" : [
                0.21623671054840088,
                0.9999479651451111,
                0.14828361570835114
            ],
            "translation" : [
                4.192191123962402,
                0.5381302237510681,
                -16.776275634765625
            ]
        }
    ],
    "materials" : [
        {
            "doubleSided" : true,
            "name" : "Material.143",
            "pbrMetallicRoughness" : {
                "baseColorTexture" : {
                    "index" : 0
                },
                "metallicFactor" : 0,
                "roughnessFactor" : 0.4000000059604645
            }
        },
        {
            "doubleSided" : true,
            "name" : "\ub9e4\ud14c\ub9ac\uc5bc.154",
            "pbrMetallicRoughness" : {
                "baseColorFactor" : [
                    0.0341116301715374,
                    0.011792490258812904,
                    0,
                    1
                ],
                "metallicFactor" : 0,
                "roughnessFactor" : 0.7013698816299438
            }
        },
        {
            "doubleSided" : true,
            "name" : "\ub9e4\ud14c\ub9ac\uc5bc.007",
            "pbrMetallicRoughness" : {
                "baseColorTexture" : {
                    "index" : 1
                },
                "metallicFactor" : 0,
                "roughnessFactor" : 0.5
            }
        }
    ],
    "meshes" : [
        {
            "name" : "Cube.003",
            "primitives" : [
                {
                    "attributes" : {
                        "POSITION" : 0,
                        "NORMAL" : 1,
                        "TEXCOORD_0" : 2
                    },
                    "indices" : 3,
                    "material" : 0
                },
                {
                    "attributes" : {
                        "POSITION" : 4,
                        "NORMAL" : 5,
                        "TEXCOORD_0" : 6
                    },
                    "indices" : 7,
                    "material" : 1
                }
            ]
        },
        {
            "name" : "\ud3c9\uba74.002",
            "primitives" : [
                {
                    "attributes" : {
                        "POSITION" : 8,
                        "NORMAL" : 9,
                        "TEXCOORD_0" : 10
                    },
                    "indices" : 11,
                    "material" : 2
                }
            ]
        }
    ],
    "textures" : [
        {
            "sampler" : 0,
            "source" : 0
        },
        {
            "sampler" : 0,
            "source" : 0
        }
    ],
    "images" : [
        {
            "bufferView" : 4,
            "mimeType" : "image/png",
            "name" : "\ud574\ubc14\ub77c\uae30"
        }
    ],
    "accessors" : [
        {
            "bufferView" : 0,
            "componentType" : 5126,
            "count" : 4,
            "max" : [
                -0.3054165244102478,
                0.8990787863731384,
                0.8990789651870728
            ],
            "min" : [
                -0.3054165244102478,
                -0.8990787863731384,
                -0.8990789651870728
            ],
            "type" : "VEC3"
        },
        {
            "bufferView" : 1,
            "componentType" : 5126,
            "count" : 4,
            "type" : "VEC3"
        },
        {
            "bufferView" : 2,
            "componentType" : 5126,
            "count" : 4,
            "type" : "VEC2"
        },
        {
            "bufferView" : 3,
            "componentType" : 5123,
            "count" : 6,
            "type" : "SCALAR"
        },
        {
            "bufferView" : 5,
            "componentType" : 5126,
            "count" : 94,
            "max" : [
                1,
                1,
                1
            ],
            "min" : [
                -1.9071972370147705,
                -1,
                -1
            ],
            "type" : "VEC3"
        },
        {
            "bufferView" : 6,
            "componentType" : 5126,
            "count" : 94,
            "type" : "VEC3"
        },
        {
            "bufferView" : 7,
            "componentType" : 5126,
            "count" : 94,
            "type" : "VEC2"
        },
        {
            "bufferView" : 8,
            "componentType" : 5123,
            "count" : 150,
            "type" : "SCALAR"
        },
        {
            "bufferView" : 9,
            "componentType" : 5126,
            "count" : 4,
            "max" : [
                1,
                0,
                1
            ],
            "min" : [
                -1,
                0,
                -1
            ],
            "type" : "VEC3"
        },
        {
            "bufferView" : 10,
            "componentType" : 5126,
            "count" : 4,
            "type" : "VEC3"
        },
        {
            "bufferView" : 11,
            "componentType" : 5126,
            "count" : 4,
            "type" : "VEC2"
        },
        {
            "bufferView" : 12,
            "componentType" : 5123,
            "count" : 6,
            "type" : "SCALAR"
        }
    ],
    "bufferViews" : [
        {
            "buffer" : 0,
            "byteLength" : 48,
            "byteOffset" : 0
        },
        {
            "buffer" : 0,
            "byteLength" : 48,
            "byteOffset" : 48
        },
        {
            "buffer" : 0,
            "byteLength" : 32,
            "byteOffset" : 96
        },
        {
            "buffer" : 0,
            "byteLength" : 12,
            "byteOffset" : 128
        },
        {
            "buffer" : 0,
            "byteLength" : 603133,
            "byteOffset" : 140
        },
        {
            "buffer" : 0,
            "byteLength" : 1128,
            "byteOffset" : 603276
        },
        {
            "buffer" : 0,
            "byteLength" : 1128,
            "byteOffset" : 604404
        },
        {
            "buffer" : 0,
            "byteLength" : 752,
            "byteOffset" : 605532
        },
        {
            "buffer" : 0,
            "byteLength" : 300,
            "byteOffset" : 606284
        },
        {
            "buffer" : 0,
            "byteLength" : 48,
            "byteOffset" : 606584
        },
        {
            "buffer" : 0,
            "byteLength" : 48,
            "byteOffset" : 606632
        },
        {
            "buffer" : 0,
            "byteLength" : 32,
            "byteOffset" : 606680
        },
        {
            "buffer" : 0,
            "byteLength" : 12,
            "byteOffset" : 606712
        }
    ],
    "samplers" : [
        {
            "magFilter" : 9729,
            "minFilter" : 9987
        }
    ],
    "buffers" : [
        {
            "byteLength" : 606724,
            "uri" : "data:application/octet-stream;base64,"
        }
    ]
}
