{
    "asset" : {
        "generator" : "Khronos glTF Blender I/O v1.5.17",
        "version" : "2.0"
    },
    "scene" : 0,
    "scenes" : [
        {
            "name" : "Scene",
            "nodes" : [
                0,
                1,
                2,
                3
            ]
        }
    ],
    "nodes" : [
        {
            "name" : "Light.001",
            "rotation" : [
                -0.4500042498111725,
                0.4450766146183014,
                -0.3489144742488861,
                -0.6911306977272034
            ],
            "scale" : [
                0.11245503276586533,
                0.11245501041412354,
                0.11245502531528473
            ],
            "translation" : [
                -4.30124568939209,
                4.020725250244141,
                10.844741821289062
            ]
        },
        {
            "mesh" : 0,
            "name" : ".CustomVarPlane",
            "scale" : [
                0.11245502531528473,
                0.11245502531528473,
                0.11245502531528473
            ],
            "translation" : [
                -4.571280479431152,
                3.089935302734375,
                11.030807495117188
            ]
        },
        {
            "mesh" : 1,
            "name" : "frame",
            "rotation" : [
                0.5000001192092896,
                -0.5000000596046448,
                -0.5,
                0.5
            ],
            "scale" : [
                0.5420944690704346,
                0.5420944690704346,
                0.5420944690704346
            ],
            "translation" : [
                -8.403889656066895,
                7.653705596923828,
                31.521263122558594
            ]
        },
        {
            "mesh" : 2,
            "name" : "plane",
            "rotation" : [
                0.7071068286895752,
                0,
                0,
                0.7071068286895752
            ],
            "scale" : [
                1.62296462059021,
                1.62296462059021,
                1.62296462059021
            ],
            "translation" : [
                -14.738837242126465,
                18.266860961914062,
                31.521263122558594
            ]
        }
    ],
    "materials" : [
        {
            "doubleSided" : true,
            "name" : "\ub9e4\ud14c\ub9ac\uc5bc.206",
            "pbrMetallicRoughness" : {
                "baseColorTexture" : {
                    "index" : 0
                },
                "metallicFactor" : 0,
                "roughnessFactor" : 0.5
            }
        },
        {
            "doubleSided" : true,
            "name" : "\ub9e4\ud14c\ub9ac\uc5bc.207",
            "pbrMetallicRoughness" : {
                "baseColorTexture" : {
                    "index" : 1
                },
                "metallicFactor" : 0,
                "roughnessFactor" : 0.5
            }
        }
    ],
    "meshes" : [
        {
            "name" : ".CustomVarPlane.003",
            "primitives" : [
                {
                    "attributes" : {
                        "POSITION" : 0,
                        "NORMAL" : 1
                    },
                    "indices" : 2
                }
            ]
        },
        {
            "name" : "3d-model.002",
            "primitives" : [
                {
                    "attributes" : {
                        "POSITION" : 3,
                        "NORMAL" : 4,
                        "TEXCOORD_0" : 5
                    },
                    "indices" : 6,
                    "material" : 0
                }
            ]
        },
        {
            "name" : "\ud3c9\uba74.024",
            "primitives" : [
                {
                    "attributes" : {
                        "POSITION" : 7,
                        "NORMAL" : 8,
                        "TEXCOORD_0" : 9
                    },
                    "indices" : 10,
                    "material" : 1
                }
            ]
        }
    ],
    "textures" : [
        {
            "sampler" : 0,
            "source" : 0
        },
        {
            "sampler" : 0,
            "source" : 1
        }
    ],
    "images" : [
        {
            "bufferView" : 7,
            "mimeType" : "image/png",
            "name" : "wp2264184"
        },
        {
            "bufferView" : 12,
            "mimeType" : "image/jpeg",
            "name" : "\ubaa8\ub124\uc758_\uc791\ud488"
        }
    ],
    "accessors" : [
        {
            "bufferView" : 0,
            "componentType" : 5126,
            "count" : 4,
            "max" : [
                0,
                0.07999999821186066,
                0.07999999821186066
            ],
            "min" : [
                0,
                -0.07999999821186066,
                -0.20000000298023224
            ],
            "type" : "VEC3"
        },
        {
            "bufferView" : 1,
            "componentType" : 5126,
            "count" : 4,
            "type" : "VEC3"
        },
        {
            "bufferView" : 2,
            "componentType" : 5123,
            "count" : 6,
            "type" : "SCALAR"
        },
        {
            "bufferView" : 3,
            "componentType" : 5126,
            "count" : 225,
            "max" : [
                23.621999740600586,
                0.6890000104904175,
                0
            ],
            "min" : [
                -23.621999740600586,
                -0.6888999938964844,
                -31.4960994720459
            ],
            "type" : "VEC3"
        },
        {
            "bufferView" : 4,
            "componentType" : 5126,
            "count" : 225,
            "type" : "VEC3"
        },
        {
            "bufferView" : 5,
            "componentType" : 5126,
            "count" : 225,
            "type" : "VEC2"
        },
        {
            "bufferView" : 6,
            "componentType" : 5123,
            "count" : 330,
            "type" : "SCALAR"
        },
        {
            "bufferView" : 8,
            "componentType" : 5126,
            "count" : 6,
            "max" : [
                13.462625503540039,
                5.419517492555315e-07,
                13.398411750793457
            ],
            "min" : [
                4.894717216491699,
                2.8626903514350488e-08,
                -0.3450927138328552
            ],
            "type" : "VEC3"
        },
        {
            "bufferView" : 9,
            "componentType" : 5126,
            "count" : 6,
            "type" : "VEC3"
        },
        {
            "bufferView" : 10,
            "componentType" : 5126,
            "count" : 6,
            "type" : "VEC2"
        },
        {
            "bufferView" : 11,
            "componentType" : 5123,
            "count" : 6,
            "type" : "SCALAR"
        }
    ],
    "bufferViews" : [
        {
            "buffer" : 0,
            "byteLength" : 48,
            "byteOffset" : 0
        },
        {
            "buffer" : 0,
            "byteLength" : 48,
            "byteOffset" : 48
        },
        {
            "buffer" : 0,
            "byteLength" : 12,
            "byteOffset" : 96
        },
        {
            "buffer" : 0,
            "byteLength" : 2700,
            "byteOffset" : 108
        },
        {
            "buffer" : 0,
            "byteLength" : 2700,
            "byteOffset" : 2808
        },
        {
            "buffer" : 0,
            "byteLength" : 1800,
            "byteOffset" : 5508
        },
        {
            "buffer" : 0,
            "byteLength" : 660,
            "byteOffset" : 7308
        },
        {
            "buffer" : 0,
            "byteLength" : 881239,
            "byteOffset" : 7968
        },
        {
            "buffer" : 0,
            "byteLength" : 72,
            "byteOffset" : 889208
        },
        {
            "buffer" : 0,
            "byteLength" : 72,
            "byteOffset" : 889280
        },
        {
            "buffer" : 0,
            "byteLength" : 48,
            "byteOffset" : 889352
        },
        {
            "buffer" : 0,
            "byteLength" : 12,
            "byteOffset" : 889400
        },
        {
            "buffer" : 0,
            "byteLength" : 1091268,
            "byteOffset" : 889412
        }
    ],
    "samplers" : [
        {
            "magFilter" : 9729,
            "minFilter" : 9987
        }
    ],
    "buffers" : [
        {
            "byteLength" : 1980680,
            "uri" : "data:application/octet-stream;base64,"
        }
    ]
}
