{
    "asset" : {
        "generator" : "Khronos glTF Blender I/O v1.5.17",
        "version" : "2.0"
    },
    "scene" : 0,
    "scenes" : [
        {
            "name" : "Scene",
            "nodes" : [
                0,
                1,
                2,
                3,
                4,
                5,
                6,
                7
            ]
        }
    ],
    "nodes" : [
        {
            "mesh" : 0,
            "name" : "\uc2e4\ub9b0\ub354.127",
            "rotation" : [
                0.3807431757450104,
                0.38074320554733276,
                0.5958479046821594,
                0.5958479046821594
            ],
            "scale" : [
                0.002199083799496293,
                0.0006392381619662046,
                0.0021990840323269367
            ],
            "translation" : [
                2.4548959732055664,
                -0.778183102607727,
                -12.382017135620117
            ]
        },
        {
            "mesh" : 1,
            "name" : "\uad6c\uccb4.026_\uad6c\uccb4.006",
            "rotation" : [
                0.5,
                -0.4999999701976776,
                0.5000000596046448,
                0.4999999403953552
            ],
            "scale" : [
                0.01956632174551487,
                0.01956632360816002,
                0.01956632360816002
            ],
            "translation" : [
                4.679004192352295,
                -0.036425650119781494,
                -14.457916259765625
            ]
        },
        {
            "mesh" : 2,
            "name" : "\uc2e4\ub9b0\ub354.001",
            "rotation" : [
                0.3807431757450104,
                0.38074320554733276,
                0.5958479046821594,
                0.5958479046821594
            ],
            "scale" : [
                0.002199083799496293,
                0.0006392381619662046,
                0.0021990840323269367
            ],
            "translation" : [
                2.4548959732055664,
                -0.778183102607727,
                -12.382017135620117
            ]
        },
        {
            "mesh" : 3,
            "name" : "\uc2e4\ub9b0\ub354.002",
            "rotation" : [
                0.3807431757450104,
                0.38074320554733276,
                0.5958479046821594,
                0.5958479046821594
            ],
            "scale" : [
                0.002199083799496293,
                0.0006392381619662046,
                0.0021990840323269367
            ],
            "translation" : [
                2.4548959732055664,
                -0.778183102607727,
                -12.382017135620117
            ]
        },
        {
            "mesh" : 4,
            "name" : "\uad6c\uccb4.026_\uad6c\uccb4.001",
            "rotation" : [
                0.5,
                -0.4999999701976776,
                0.5000000596046448,
                0.4999999403953552
            ],
            "scale" : [
                0.01956632174551487,
                0.01956632360816002,
                0.01956632360816002
            ],
            "translation" : [
                4.679004192352295,
                -0.036425650119781494,
                -14.457916259765625
            ]
        },
        {
            "mesh" : 5,
            "name" : "\uc2e4\ub9b0\ub354.003",
            "rotation" : [
                0.3807431757450104,
                0.38074320554733276,
                0.5958479046821594,
                0.5958479046821594
            ],
            "scale" : [
                0.002199083799496293,
                0.0006392381619662046,
                0.0021990840323269367
            ],
            "translation" : [
                2.4548959732055664,
                -0.778183102607727,
                -12.382017135620117
            ]
        },
        {
            "mesh" : 6,
            "name" : "\uad6c\uccb4.026_\uad6c\uccb4.002",
            "rotation" : [
                0.5,
                -0.4999999701976776,
                0.5000000596046448,
                0.4999999403953552
            ],
            "scale" : [
                0.01956632174551487,
                0.01956632360816002,
                0.01956632360816002
            ],
            "translation" : [
                4.679004192352295,
                -0.036425650119781494,
                -14.457916259765625
            ]
        },
        {
            "mesh" : 7,
            "name" : "\ud050\ube0c.003",
            "rotation" : [
                0,
                0,
                -0.49182847142219543,
                0.8706921339035034
            ],
            "scale" : [
                0.14347156882286072,
                0.40357038378715515,
                0.08225083351135254
            ],
            "translation" : [
                5.13169002532959,
                1.1696481704711914,
                -6.761081695556641
            ]
        }
    ],
    "materials" : [
        {
            "doubleSided" : true,
            "name" : "None.044",
            "pbrMetallicRoughness" : {
                "baseColorFactor" : [
                    0.8000000715255737,
                    0.7123518586158752,
                    0.10433956235647202,
                    1
                ],
                "metallicFactor" : 0,
                "roughnessFactor" : 0.2546440064907074
            }
        },
        {
            "doubleSided" : true,
            "name" : "\ub9e4\ud14c\ub9ac\uc5bc.019",
            "pbrMetallicRoughness" : {
                "baseColorFactor" : [
                    0.955973744392395,
                    0.029556678608059883,
                    0.043735064566135406,
                    1
                ],
                "metallicFactor" : 0,
                "roughnessFactor" : 0.4000000059604645
            }
        },
        {
            "doubleSided" : true,
            "name" : "None.001",
            "pbrMetallicRoughness" : {
                "baseColorFactor" : [
                    0.8000000715255737,
                    0.7123518586158752,
                    0.10433956235647202,
                    1
                ],
                "metallicFactor" : 0,
                "roughnessFactor" : 0.2546440064907074
            }
        },
        {
            "doubleSided" : true,
            "name" : "None.002",
            "pbrMetallicRoughness" : {
                "baseColorFactor" : [
                    0.8000000715255737,
                    0.7123518586158752,
                    0.10433956235647202,
                    1
                ],
                "metallicFactor" : 0,
                "roughnessFactor" : 0.2546440064907074
            }
        },
        {
            "doubleSided" : true,
            "name" : "\ub9e4\ud14c\ub9ac\uc5bc.021",
            "pbrMetallicRoughness" : {
                "baseColorFactor" : [
                    0.8000000715255737,
                    0.035524047911167145,
                    0.031181521713733673,
                    1
                ],
                "metallicFactor" : 0,
                "roughnessFactor" : 0.4000000059604645
            }
        }
    ],
    "meshes" : [
        {
            "name" : "\uc2e4\ub9b0\ub354.088",
            "primitives" : [
                {
                    "attributes" : {
                        "POSITION" : 0,
                        "NORMAL" : 1,
                        "TEXCOORD_0" : 2
                    },
                    "indices" : 3
                }
            ]
        },
        {
            "name" : "\uad6c\uccb4.026_\uad6c\uccb4.002",
            "primitives" : [
                {
                    "attributes" : {
                        "POSITION" : 4,
                        "NORMAL" : 5,
                        "TEXCOORD_0" : 6
                    },
                    "indices" : 7,
                    "material" : 0
                }
            ]
        },
        {
            "name" : "\uc2e4\ub9b0\ub354.129",
            "primitives" : [
                {
                    "attributes" : {
                        "POSITION" : 8,
                        "NORMAL" : 9,
                        "TEXCOORD_0" : 10
                    },
                    "indices" : 3
                }
            ]
        },
        {
            "name" : "\uc2e4\ub9b0\ub354.002",
            "primitives" : [
                {
                    "attributes" : {
                        "POSITION" : 11,
                        "NORMAL" : 12,
                        "TEXCOORD_0" : 13
                    },
                    "indices" : 3,
                    "material" : 1
                }
            ]
        },
        {
            "name" : "\uad6c\uccb4.026_\uad6c\uccb4.001",
            "primitives" : [
                {
                    "attributes" : {
                        "POSITION" : 14,
                        "NORMAL" : 15,
                        "TEXCOORD_0" : 16
                    },
                    "indices" : 7,
                    "material" : 2
                }
            ]
        },
        {
            "name" : "\uc2e4\ub9b0\ub354.031",
            "primitives" : [
                {
                    "attributes" : {
                        "POSITION" : 17,
                        "NORMAL" : 18,
                        "TEXCOORD_0" : 19
                    },
                    "indices" : 3
                }
            ]
        },
        {
            "name" : "\uad6c\uccb4.026_\uad6c\uccb4.004",
            "primitives" : [
                {
                    "attributes" : {
                        "POSITION" : 20,
                        "NORMAL" : 21,
                        "TEXCOORD_0" : 22
                    },
                    "indices" : 7,
                    "material" : 3
                }
            ]
        },
        {
            "name" : "\ud050\ube0c.016",
            "primitives" : [
                {
                    "attributes" : {
                        "POSITION" : 23,
                        "NORMAL" : 24,
                        "TEXCOORD_0" : 25
                    },
                    "indices" : 26,
                    "material" : 4
                }
            ]
        }
    ],
    "accessors" : [
        {
            "bufferView" : 0,
            "componentType" : 5126,
            "count" : 273,
            "max" : [
                1,
                1,
                1
            ],
            "min" : [
                -1,
                -1,
                -1
            ],
            "type" : "VEC3"
        },
        {
            "bufferView" : 1,
            "componentType" : 5126,
            "count" : 273,
            "type" : "VEC3"
        },
        {
            "bufferView" : 2,
            "componentType" : 5126,
            "count" : 273,
            "type" : "VEC2"
        },
        {
            "bufferView" : 3,
            "componentType" : 5123,
            "count" : 372,
            "type" : "SCALAR"
        },
        {
            "bufferView" : 4,
            "componentType" : 5126,
            "count" : 2778,
            "max" : [
                -0.3058600127696991,
                0.016227999702095985,
                -2.278520107269287
            ],
            "min" : [
                -0.3278599977493286,
                -0.005772000178694725,
                -2.3005199432373047
            ],
            "type" : "VEC3"
        },
        {
            "bufferView" : 5,
            "componentType" : 5126,
            "count" : 2778,
            "type" : "VEC3"
        },
        {
            "bufferView" : 6,
            "componentType" : 5126,
            "count" : 2778,
            "type" : "VEC2"
        },
        {
            "bufferView" : 7,
            "componentType" : 5123,
            "count" : 2880,
            "type" : "SCALAR"
        },
        {
            "bufferView" : 8,
            "componentType" : 5126,
            "count" : 273,
            "max" : [
                1,
                1,
                1
            ],
            "min" : [
                -1,
                -1,
                -1
            ],
            "type" : "VEC3"
        },
        {
            "bufferView" : 9,
            "componentType" : 5126,
            "count" : 273,
            "type" : "VEC3"
        },
        {
            "bufferView" : 10,
            "componentType" : 5126,
            "count" : 273,
            "type" : "VEC2"
        },
        {
            "bufferView" : 11,
            "componentType" : 5126,
            "count" : 273,
            "max" : [
                1,
                1,
                1
            ],
            "min" : [
                -1,
                -1,
                -1
            ],
            "type" : "VEC3"
        },
        {
            "bufferView" : 12,
            "componentType" : 5126,
            "count" : 273,
            "type" : "VEC3"
        },
        {
            "bufferView" : 13,
            "componentType" : 5126,
            "count" : 273,
            "type" : "VEC2"
        },
        {
            "bufferView" : 14,
            "componentType" : 5126,
            "count" : 2778,
            "max" : [
                -0.3058600127696991,
                0.016227999702095985,
                -2.278520107269287
            ],
            "min" : [
                -0.3278599977493286,
                -0.005772000178694725,
                -2.3005199432373047
            ],
            "type" : "VEC3"
        },
        {
            "bufferView" : 15,
            "componentType" : 5126,
            "count" : 2778,
            "type" : "VEC3"
        },
        {
            "bufferView" : 16,
            "componentType" : 5126,
            "count" : 2778,
            "type" : "VEC2"
        },
        {
            "bufferView" : 17,
            "componentType" : 5126,
            "count" : 273,
            "max" : [
                1,
                1,
                1
            ],
            "min" : [
                -1,
                -1,
                -1
            ],
            "type" : "VEC3"
        },
        {
            "bufferView" : 18,
            "componentType" : 5126,
            "count" : 273,
            "type" : "VEC3"
        },
        {
            "bufferView" : 19,
            "componentType" : 5126,
            "count" : 273,
            "type" : "VEC2"
        },
        {
            "bufferView" : 20,
            "componentType" : 5126,
            "count" : 2778,
            "max" : [
                -0.3058600127696991,
                0.016227999702095985,
                -2.278520107269287
            ],
            "min" : [
                -0.3278599977493286,
                -0.005772000178694725,
                -2.3005199432373047
            ],
            "type" : "VEC3"
        },
        {
            "bufferView" : 21,
            "componentType" : 5126,
            "count" : 2778,
            "type" : "VEC3"
        },
        {
            "bufferView" : 22,
            "componentType" : 5126,
            "count" : 2778,
            "type" : "VEC2"
        },
        {
            "bufferView" : 23,
            "componentType" : 5126,
            "count" : 56,
            "max" : [
                2.1074280738830566,
                0.11226844787597656,
                1
            ],
            "min" : [
                -2.1074280738830566,
                -1.9324538707733154,
                -1
            ],
            "type" : "VEC3"
        },
        {
            "bufferView" : 24,
            "componentType" : 5126,
            "count" : 56,
            "type" : "VEC3"
        },
        {
            "bufferView" : 25,
            "componentType" : 5126,
            "count" : 56,
            "type" : "VEC2"
        },
        {
            "bufferView" : 26,
            "componentType" : 5123,
            "count" : 72,
            "type" : "SCALAR"
        }
    ],
    "bufferViews" : [
        {
            "buffer" : 0,
            "byteLength" : 3276,
            "byteOffset" : 0
        },
        {
            "buffer" : 0,
            "byteLength" : 3276,
            "byteOffset" : 3276
        },
        {
            "buffer" : 0,
            "byteLength" : 2184,
            "byteOffset" : 6552
        },
        {
            "buffer" : 0,
            "byteLength" : 744,
            "byteOffset" : 8736
        },
        {
            "buffer" : 0,
            "byteLength" : 33336,
            "byteOffset" : 9480
        },
        {
            "buffer" : 0,
            "byteLength" : 33336,
            "byteOffset" : 42816
        },
        {
            "buffer" : 0,
            "byteLength" : 22224,
            "byteOffset" : 76152
        },
        {
            "buffer" : 0,
            "byteLength" : 5760,
            "byteOffset" : 98376
        },
        {
            "buffer" : 0,
            "byteLength" : 3276,
            "byteOffset" : 104136
        },
        {
            "buffer" : 0,
            "byteLength" : 3276,
            "byteOffset" : 107412
        },
        {
            "buffer" : 0,
            "byteLength" : 2184,
            "byteOffset" : 110688
        },
        {
            "buffer" : 0,
            "byteLength" : 3276,
            "byteOffset" : 112872
        },
        {
            "buffer" : 0,
            "byteLength" : 3276,
            "byteOffset" : 116148
        },
        {
            "buffer" : 0,
            "byteLength" : 2184,
            "byteOffset" : 119424
        },
        {
            "buffer" : 0,
            "byteLength" : 33336,
            "byteOffset" : 121608
        },
        {
            "buffer" : 0,
            "byteLength" : 33336,
            "byteOffset" : 154944
        },
        {
            "buffer" : 0,
            "byteLength" : 22224,
            "byteOffset" : 188280
        },
        {
            "buffer" : 0,
            "byteLength" : 3276,
            "byteOffset" : 210504
        },
        {
            "buffer" : 0,
            "byteLength" : 3276,
            "byteOffset" : 213780
        },
        {
            "buffer" : 0,
            "byteLength" : 2184,
            "byteOffset" : 217056
        },
        {
            "buffer" : 0,
            "byteLength" : 33336,
            "byteOffset" : 219240
        },
        {
            "buffer" : 0,
            "byteLength" : 33336,
            "byteOffset" : 252576
        },
        {
            "buffer" : 0,
            "byteLength" : 22224,
            "byteOffset" : 285912
        },
        {
            "buffer" : 0,
            "byteLength" : 672,
            "byteOffset" : 308136
        },
        {
            "buffer" : 0,
            "byteLength" : 672,
            "byteOffset" : 308808
        },
        {
            "buffer" : 0,
            "byteLength" : 448,
            "byteOffset" : 309480
        },
        {
            "buffer" : 0,
            "byteLength" : 144,
            "byteOffset" : 309928
        }
    ],
    "buffers" : [
        {
            "byteLength" : 310072,
            "uri" : "data:application/octet-stream;base64,"
        }
    ]
}
